<svg width="48" height="48" viewBox="0 0 48 48" fill="none" xmlns="http://www.w3.org/2000/svg">
<mask id="mask0" mask-type="alpha" maskUnits="userSpaceOnUse" x="0" y="0" width="48" height="48">
<path d="M48 24C48 37.2548 37.2548 48 24 48C10.7452 48 0 37.2548 0 24C0 10.7452 10.7452 0 24 0C37.2548 0 48 10.7452 48 24Z" fill="#E8EFFF"/>
</mask>
<g mask="url(#mask0)">
<path d="M48 24C48 37.2548 37.2548 48 24 48C10.7452 48 0 37.2548 0 24C0 10.7452 10.7452 0 24 0C37.2548 0 48 10.7452 48 24Z" fill="#E8EFFF"/>
<path d="M46.8439 13.6521C46.8085 9.97823 43.8016 7.0287 40.1277 7.0641L23.5483 7.22385C19.8745 7.25925 16.9249 10.2662 16.9603 13.94L17.0236 20.5017C17.059 24.1755 20.0659 27.125 23.7397 27.0896L33.7725 26.993C33.9546 26.9912 34.1352 27.0269 34.303 27.0977L40.6969 29.7985C41.5791 30.1712 42.5542 29.5177 42.545 28.5601L42.5362 27.6489C42.5323 27.2401 42.8606 26.9054 43.2694 26.9014C45.3139 26.8817 46.9553 25.2084 46.9356 23.164L46.8439 13.6521Z" fill="#506FFF"/>
<path d="M31 27.0625V21.6396C31 19.7013 29.3074 18.1301 27.2195 18.1301H17L17.0254 20.6842C17.0611 24.2786 20.0952 27.1644 23.8023 27.1298L31 27.0625Z" fill="#3146CC"/>
<path d="M28.0087 11.7023C28.0039 11.2022 28.4054 10.7928 28.9056 10.788L40.6779 10.6746C41.178 10.6697 41.5873 11.0713 41.5922 11.5714C41.597 12.0715 41.1955 12.4809 40.6953 12.4857L28.923 12.5991C28.4229 12.6039 28.0135 12.2024 28.0087 11.7023Z" fill="white"/>
<path d="M33.5033 17.9888C33.4985 17.4887 33.9 17.0793 34.4002 17.0745L40.7391 17.0134C41.2392 17.0086 41.6486 17.4101 41.6534 17.9103C41.6582 18.4104 41.2567 18.8197 40.7566 18.8245L34.4176 18.8856C33.9175 18.8904 33.5081 18.4889 33.5033 17.9888Z" fill="#A7B7FF"/>
<path d="M4 24.6627C4 22.7117 5.62806 21.1301 7.63636 21.1301H24.3636C26.3719 21.1301 28 22.7117 28 24.6627V33.0967C28 35.0476 26.3719 36.6292 24.3636 36.6292H14.5293C14.4298 36.6292 14.3312 36.6491 14.2399 36.6876L8.58427 39.071C8.10401 39.2734 7.56757 38.9314 7.56757 38.4228V37.2068C7.56757 36.8878 7.30136 36.6292 6.97297 36.6292C5.33105 36.6292 4 35.3362 4 33.7411V24.6627Z" fill="#48C5A1"/>
<path d="M3.15 22.6627C3.15 20.7986 4.70677 19.2801 6.63636 19.2801H23.3636C25.2932 19.2801 26.85 20.7986 26.85 22.6627V31.0967C26.85 32.9607 25.2932 34.4792 23.3636 34.4792H13.5293C13.4098 34.4792 13.2915 34.503 13.1816 34.5493L7.52602 36.9327C7.13846 37.0961 6.71757 36.8174 6.71757 36.4228V35.2068C6.71757 34.8009 6.38008 34.4792 5.97297 34.4792C4.40976 34.4792 3.15 33.2493 3.15 31.7411V22.6627Z" stroke="white" stroke-width="0.3"/>
<circle cx="23.5" cy="28.5" r="1.5" fill="white"/>
<circle cx="16.5" cy="28.5" r="1.5" fill="white"/>
<circle cx="9.5" cy="28.5" r="1.5" fill="white"/>
<circle cx="42" cy="33.0286" r="1.02857" fill="#BACAF0"/>
<circle cx="42" cy="42.6286" r="1.02857" fill="#BACAF0"/>
<circle cx="42" cy="37.8286" r="1.02857" fill="#3D58FF"/>
<circle cx="31.0286" cy="33.0286" r="1.02857" fill="#BACAF0"/>
<circle cx="31.0286" cy="42.6286" r="1.02857" fill="#ECAE00"/>
<circle cx="31.0286" cy="37.8286" r="1.02857" fill="#BACAF0"/>
<circle cx="36.5143" cy="33.0286" r="1.02857" fill="#BACAF0"/>
<circle cx="36.5143" cy="42.6286" r="1.02857" fill="#BACAF0"/>
<circle cx="36.5143" cy="37.8286" r="1.02857" fill="#BACAF0"/>
</g>
</svg>
