<svg width="505" height="400" viewBox="0 0 505 400" fill="none" xmlns="http://www.w3.org/2000/svg">
<path d="M0 185.983H8.28637V387.618H0V185.983Z" fill="#F2F5FC"/>
<path d="M8.28711 185.983H16.5735L13.984 385.337L8.28711 387.618V185.983Z" fill="#E8EBF2"/>
<path d="M111.406 196.111H119.693V399.587L111.406 397.676V196.111Z" fill="#F2F5FC"/>
<path d="M119.693 196.111H127.98L125.39 395.396L119.693 399.587V196.111Z" fill="#E8EBF2"/>
<path d="M149.154 150.075H158.361V354.472H149.154V150.075Z" fill="#F2F5FC"/>
<path d="M158.361 150.075H166.648L164.058 352.16L158.361 354.472V150.075Z" fill="#E8EBF2"/>
<path d="M217.287 156.52H225.573V383.014H217.287V156.52Z" fill="#E9EDF8"/>
<path d="M225.572 156.52H233.859L231.269 380.452L225.572 383.014V156.52Z" fill="#E8EBF2"/>
<path d="M226.494 163.436L120.385 203.476L112.326 192.265C150.382 178.385 226.494 150.517 226.494 150.09V163.436Z" fill="#E8EBF2"/>
<path d="M0 193.404V185.983L119.692 190.4V203.476L0 193.404Z" fill="#F2F5FC"/>
<path d="M159.426 147.313L0 185.828L120.023 194.269L252.274 147.313H159.426Z" fill="#EFF2FA"/>
<path d="M81.2142 138.007C88.8233 137.587 95.305 139.928 97.5948 141.151C90.9017 140.452 76.7756 142.408 73.8165 155.825C70.8575 169.241 68.0041 160.716 66.9473 154.777C67.0439 154.447 67.1536 154.096 67.2759 153.728L63.7768 145.867C62.9524 146.481 61.9236 147.065 60.8202 147.44C59.3399 153.03 55.5337 162.009 52.1519 153.204C48.7701 144.4 41.936 143.247 38.9417 143.771C44.4372 137.901 50.6696 140.976 53.0989 143.247C52.6293 141.883 52.2966 140.16 52.1519 138.007C51.3064 125.429 41.5838 119.489 36.8281 118.091C37.1804 117.567 40.2099 117.567 49.5099 121.76C58.8098 125.952 63.3081 136.434 64.3947 141.151C66.4956 130.02 73.8386 113.779 91.7823 112.326C86.146 114.416 75.0847 122.896 75.9302 140.093C77.5181 138.896 79.2846 138.113 81.2142 138.007Z" fill="#E8EBF2"/>
<path d="M51.1861 104.961C58.7903 110.69 72.0188 127.374 68.1684 150.465C70.9876 140.793 78.9315 127.723 95.7546 128.077C91.51 129.829 79.8373 137.744 67.1034 155.397C60.312 181.036 60.0291 171.684 60.7365 163.803C59.1448 166.255 55.5368 167.691 53.839 153.821C52.1411 139.951 39.3366 134.732 33.1465 133.857C35.2688 131.93 41.8479 129.233 51.1861 133.857C56.2501 136.364 58.7904 140.632 59.9292 144.769C58.7831 130.313 56.2365 113.573 51.1861 104.961Z" fill="#F2F5FC"/>
<path d="M49.0187 178.413L44.1953 150.996C60.4877 159.053 74.9222 154.353 80.1029 150.996L75.8154 178.413C65.5255 183.785 53.6635 180.652 49.0187 178.413Z" fill="#E8EBF2"/>
<path d="M402.133 200.118H411.846V252.325H402.133V200.118Z" fill="#E8EBF2"/>
<path d="M363.711 118.772H373.424V170.979H363.711V118.772Z" fill="#E8EBF2"/>
<path d="M375.852 118.772H385.565V170.979H375.852V118.772Z" fill="#E8EBF2"/>
<path d="M394.062 202.546L402.201 207.154L376.705 252.187L368.566 247.579L394.062 202.546Z" fill="#E8EBF2"/>
<path fill-rule="evenodd" clip-rule="evenodd" d="M350.355 8.28638H360.068V89.6324H504.548L504.548 99.3453H437.771V260.823H434.129H428.058H360.068H350.355V251.11V179.477H283.578V169.764H350.355V99.3453V89.6324V8.28638ZM428.058 251.11V179.477H360.068V251.11H428.058ZM428.058 169.764V99.3453H360.068V169.764H428.058Z" fill="#EFF2FA"/>
<path d="M387.992 37.4258H378.279V89.6329H387.992V37.4258Z" fill="#E8EBF2"/>
<path d="M374.637 38.6399H364.924V90.847H374.637V38.6399Z" fill="#E8EBF2"/>
<path d="M396.061 41.0681L387.922 45.6759L413.418 90.7091L421.557 86.1013L396.061 41.0681Z" fill="#E8EBF2"/>
<path d="M432.916 79.9199L432.916 89.2723L484.666 89.2723L484.666 79.9199L432.916 79.9199Z" fill="#E8EBF2"/>
<path d="M443.842 71.4209L443.842 80.7733L495.592 80.7733L495.592 71.4209L443.842 71.4209Z" fill="#E8EBF2"/>
<path d="M413.729 131.613C417.004 133.462 415.425 138.392 414.226 140.626H407.688C407.895 139.971 409.462 137.991 410.256 135.31C411.248 131.959 401.819 126.875 406.41 124.68C411 122.484 406.906 119.595 403.432 115.204C399.959 110.813 407.774 102.378 411 106.538C414.225 110.698 410.504 110.813 410.256 115.204C410.007 119.595 416.707 119.826 415.838 124.68C414.97 129.533 409.635 129.302 413.729 131.613Z" fill="#EFF2FA"/>
<path d="M408.379 131.592C412.933 133.94 410.672 138.593 408.972 140.626H405.533C405.533 138.819 404.703 138.932 403.043 137.012C401.383 135.092 404.941 134.754 400.435 131.592C395.928 128.429 397.589 125.945 397.47 124.138C397.351 122.332 394.031 123.461 392.015 118.831C389.999 114.201 396.521 113.975 399.13 117.814C401.739 121.654 401.976 121.202 405.533 123.799C409.091 126.397 402.688 128.655 408.379 131.592Z" fill="#3D58FF"/>
<path d="M408.379 131.592C412.933 133.94 410.672 138.593 408.972 140.626H405.533C405.533 138.819 404.703 138.932 403.043 137.012C401.383 135.092 404.941 134.754 400.435 131.592C395.928 128.429 397.589 125.945 397.47 124.138C397.351 122.332 394.031 123.461 392.015 118.831C389.999 114.201 396.521 113.975 399.13 117.814C401.739 121.654 401.976 121.202 405.533 123.799C409.091 126.397 402.688 128.655 408.379 131.592Z" fill="#EFF2FA"/>
<path fill-rule="evenodd" clip-rule="evenodd" d="M407.397 140.538C408.11 138.006 408.795 134.064 407.147 133.652C404.842 133.076 402.538 130.196 403.345 127.546C404.151 124.896 401.271 122.362 398.967 121.786C396.803 121.245 393.217 116.538 393.074 114.822C394.697 114.02 397.686 114.861 399.243 117.266C401.198 120.288 401.782 120.704 403.534 121.953C404.053 122.323 404.674 122.767 405.464 123.372C407.018 124.564 406.616 125.685 406.205 126.831C405.702 128.234 405.185 129.673 408.229 131.322C412.653 133.718 410.456 138.465 408.805 140.538H407.397Z" fill="#E8EBF2"/>
<path d="M417.185 147.033C415.473 143.014 417.47 138.658 418.897 136.984H401.348C403.345 138.798 406.227 143.684 403.488 148.708C400.063 154.989 400.063 171.32 411.62 169.645C423.177 167.97 419.325 152.058 417.185 147.033Z" fill="#E8EBF2"/>
<path d="M338.214 127.877C338.214 140.953 327.614 151.553 314.539 151.553C301.463 151.553 290.863 140.953 290.863 127.877C290.863 114.802 301.463 104.202 314.539 104.202C327.614 104.202 338.214 114.802 338.214 127.877Z" fill="#E8EBF2"/>
<path fill-rule="evenodd" clip-rule="evenodd" d="M338.138 129.777C338.188 129.15 338.214 128.516 338.214 127.877C338.214 122.324 336.302 117.218 333.101 113.181C332.733 113.093 332.026 113.182 330.929 113.913C331.131 114.318 330.929 115.249 328.501 115.735C325.465 116.341 324.858 116.344 324.251 116.343C323.645 116.341 323.644 116.343 322.438 117.549L322.438 117.549L322.43 117.557L322.43 117.557L322.43 117.557L322.43 117.557C321.895 118.091 321.596 118.391 321.274 118.662C320.863 119.006 320.414 119.305 319.395 119.985C318.283 120.726 317.85 121.015 317.543 121.403C317.347 121.651 317.203 121.94 316.966 122.413C316.359 123.627 316.359 124.842 316.359 125.449V126.663C316.359 126.865 316.238 127.392 315.752 127.877C315.402 128.227 315.456 128.375 315.564 128.671C315.644 128.888 315.752 129.185 315.752 129.698C315.752 129.924 315.731 130.192 315.709 130.479C315.61 131.732 315.484 133.34 316.966 133.34C317.771 133.34 318.102 132.985 318.325 132.745C318.607 132.442 318.717 132.324 319.395 133.34C319.733 133.848 320.024 134.214 320.255 134.504C320.853 135.256 321.047 135.5 320.609 136.376C320.119 137.356 320.816 137.941 321.422 138.449L321.422 138.449L321.422 138.449C321.567 138.57 321.706 138.687 321.823 138.804C322.078 139.059 321.582 139.744 321.102 140.406C320.44 141.32 319.809 142.191 321.216 141.839C322.025 141.637 322.632 141.637 323.104 141.637C324.049 141.637 324.453 141.637 324.858 140.018C325.151 138.847 325.02 138.523 324.874 138.162C324.718 137.773 324.544 137.341 324.858 135.769C324.974 135.189 325.068 134.698 325.148 134.278C325.487 132.501 325.581 132.01 326.072 131.519C326.265 131.327 326.396 131.195 326.506 131.047C326.741 130.729 326.872 130.334 327.286 129.091C327.893 127.27 329.715 127.877 330.322 129.091C330.554 129.555 330.608 130.107 330.655 130.579V130.579C330.731 131.342 330.785 131.894 331.536 131.519C332.07 131.252 332.252 130.867 332.391 130.572C332.568 130.196 332.677 129.965 333.357 130.305C334.571 130.912 335.026 130.912 335.254 130.912C335.322 130.912 335.369 130.912 335.411 130.928C335.509 130.966 335.572 131.093 335.785 131.519C336.392 132.733 337.606 133.34 337.606 132.126C337.606 130.964 337.606 130.359 338.138 129.777ZM300.659 108.694C300.954 108.623 301.321 108.544 301.79 108.45C303.813 108.044 303.409 108.45 303.094 108.765C302.937 108.923 302.802 109.058 303.004 109.058C303.611 109.058 306.646 108.45 307.861 107.843C308.832 107.357 309.075 108.045 309.075 108.45C309.277 108.652 310.289 109.057 312.717 109.057C314.054 109.057 314.331 109.057 314.378 109.161C314.39 109.188 314.387 109.222 314.382 109.265C314.366 109.431 314.336 109.731 315.145 110.271C316.311 111.048 316.233 111.079 316.026 111.16C315.909 111.205 315.752 111.267 315.752 111.485C315.752 111.669 315.919 112.019 316.102 112.402C316.521 113.284 317.022 114.336 315.752 113.913C314.354 113.447 314.387 113.697 314.478 114.387V114.387V114.387L314.478 114.387C314.505 114.596 314.538 114.845 314.538 115.127C314.538 115.793 314.355 116.094 314.09 116.531C313.872 116.89 313.598 117.341 313.324 118.163C312.717 119.983 310.896 119.377 310.289 118.163C309.93 117.444 310.208 116.938 310.369 116.645C310.481 116.443 310.537 116.342 310.289 116.341C309.682 116.341 309.075 115.127 308.468 113.913C308.079 113.136 307.939 113.105 307.57 113.024C307.363 112.979 307.083 112.918 306.646 112.699C306.428 112.59 306.269 112.501 306.15 112.434C305.965 112.33 305.881 112.283 305.83 112.307C305.789 112.326 305.77 112.394 305.735 112.517C305.69 112.679 305.617 112.936 305.432 113.306C305.219 113.734 305.155 113.86 305.19 113.898C305.204 113.914 305.236 113.914 305.281 113.914C305.432 113.914 305.736 113.914 306.039 114.521C306.415 115.271 306.558 115.326 306.756 115.401C306.878 115.448 307.022 115.503 307.253 115.735C307.861 116.342 307.861 116.949 307.253 117.556C306.646 118.163 307.253 119.377 308.468 120.591C309.169 121.292 309.06 121.386 308.843 121.574C308.684 121.711 308.468 121.899 308.468 122.412C308.468 122.824 308.468 123.096 308.349 123.299C308.119 123.696 307.439 123.832 305.432 124.234C304.307 124.234 304.572 124.465 304.94 124.786C305.167 124.984 305.432 125.216 305.432 125.448C305.432 126.055 305.432 126.662 304.825 127.269C304.522 127.572 304.218 127.421 303.915 127.269C303.611 127.117 303.308 126.965 303.004 127.269L303.004 127.269C302.655 127.618 302.507 127.766 302.444 127.945C302.397 128.077 302.397 128.225 302.397 128.483C302.397 128.787 302.549 128.938 302.852 129.242C303.156 129.545 303.611 130.001 304.218 130.911C304.96 132.023 304.795 132.004 304.417 131.958C304.176 131.929 303.847 131.889 303.611 132.125C303.156 132.581 302.701 132.012 302.245 131.442C302.093 131.253 301.942 131.063 301.79 130.911L300.576 129.697C300.272 129.697 300.272 129.545 300.272 129.318C300.272 129.09 300.272 128.787 299.969 128.483C299.785 128.299 299.601 128.171 299.4 128.031C298.938 127.709 298.387 127.325 297.54 126.055C296.609 124.657 296.75 124.332 297.14 123.433C297.258 123.161 297.399 122.836 297.54 122.412C298.148 120.591 296.933 120.591 295.719 120.591C294.885 120.591 293.99 118.499 293.498 117.011C295.207 113.709 297.67 110.861 300.659 108.694ZM305.432 133.34C304.825 133.947 303.854 135.526 304.825 136.983C306.039 138.804 306.039 140.018 305.432 140.625C304.825 141.232 304.825 143.053 305.432 143.66C306.039 144.267 306.646 145.482 306.646 146.089C306.646 146.229 306.581 146.468 306.503 146.752C306.246 147.691 305.855 149.124 307.253 149.124C307.714 149.124 308.136 149.202 308.5 149.269C309.572 149.466 310.135 149.57 309.682 147.303C309.385 145.819 308.798 145.351 308.418 145.047C308.019 144.729 307.847 144.591 308.468 143.66C309.075 142.75 309.53 142.295 309.909 141.915C310.289 141.536 310.592 141.232 310.896 140.625C311.098 140.22 311.368 140.086 311.593 139.973C312.042 139.748 312.312 139.613 311.503 137.59C310.784 135.794 310.279 135.06 309.985 134.635C309.783 134.342 309.682 134.195 309.682 133.947C309.682 133.34 308.468 132.126 307.861 131.519L307.861 131.519C307.375 131.034 306.039 132.531 305.432 133.34Z" fill="#EFF2FA"/>
<path fill-rule="evenodd" clip-rule="evenodd" d="M334.572 111.384C334.382 111.451 334.178 111.487 333.965 111.487C332.959 111.487 332.144 110.672 332.144 109.666C332.144 108.66 332.959 107.845 333.965 107.845C334.971 107.845 335.786 108.66 335.786 109.666C335.786 109.951 335.721 110.22 335.604 110.46C345.904 123.671 342.099 137.452 338.802 142.809L338.786 142.836L338.767 142.862C330.632 153.708 321.766 156.875 313.943 156.309C306.979 155.806 300.944 152.353 297.086 148.96C296.855 149.066 296.598 149.125 296.327 149.125C295.321 149.125 294.506 148.31 294.506 147.304C294.506 146.298 295.321 145.483 296.327 145.483C297.333 145.483 298.148 146.298 298.148 147.304C298.148 147.532 298.106 147.75 298.03 147.951C301.718 151.185 307.467 154.457 314.042 154.932C321.329 155.459 329.756 152.56 337.643 142.059C340.711 137.047 344.34 123.983 334.572 111.384Z" fill="#E8EBF2"/>
<path d="M312.717 155.195H317.573V169.765H312.717V155.195Z" fill="#E8EBF2"/>
<path d="M306.04 166.729C304.098 166.729 302.398 168.753 301.791 169.765H329.109C329.109 167.336 326.276 166.729 324.859 166.729H306.04Z" fill="#E8EBF2"/>
<path d="M414.703 200.118H424.416V252.325H414.703V200.118Z" fill="#E8EBF2"/>
<path d="M203.015 110.025C211.117 106.342 210.381 98.9761 209 95.7536C205.317 88.6948 197.951 71.9073 197.951 61.2271C197.951 50.5469 200.713 45.1147 202.094 43.7336L222.81 75.0377L217.746 97.595V106.802L203.015 110.025Z" fill="#212020"/>
<path d="M234.739 318.315C235.314 315.726 228.115 310.168 225.388 308.431L237.25 302.405C238.629 304.861 242.053 310.601 245.432 310.671C249.657 310.76 252.534 314.624 253.704 317.769C254.873 320.915 253.615 321.994 244.9 332.962C236.186 343.93 230.437 353.01 225.222 348.967C220.008 344.924 224.591 341.867 228.724 337.012C232.856 332.157 234.021 321.551 234.739 318.315Z" fill="#FFCABC"/>
<path d="M237.254 318.447C234.953 317.801 234.139 320.755 234.02 322.313C231.237 332.561 218.656 340.294 221.714 346.405C224.161 351.294 227.768 351.257 229.266 350.627C236.006 348.558 255.411 320.778 255.321 318.89C255.244 317.296 251.453 312.6 249.836 312.241C249.98 315.261 244.565 320.692 241.84 323.029C241.27 321.771 239.556 319.094 237.254 318.447Z" fill="#3D58FF"/>
<path d="M254.056 316.594C249.523 323.718 240.953 336.736 236.727 341.502C232.479 346.293 227.845 349.454 225.705 350.644C227.086 351.151 228.347 350.985 229.09 350.673C235.83 348.603 255.235 320.823 255.145 318.936C255.12 318.407 254.685 317.535 254.056 316.594Z" fill="white"/>
<path d="M245.826 304.293L200.251 247.67L176.773 243.527L183.218 272.989L233.397 317.183L245.826 304.293Z" fill="#DCEBF1"/>
<path d="M245.826 304.293L200.251 247.67L176.773 243.527L183.218 272.989L233.397 317.183L245.826 304.293Z" fill="#DCEBF1"/>
<path fill-rule="evenodd" clip-rule="evenodd" d="M237.348 311.847L174.279 248.318L175.586 247.021L238.655 310.55L237.348 311.847Z" fill="#D4E4EA"/>
<path d="M220.508 384.395V254.115L227.413 250.432V384.395C235.393 384.395 250.707 386.236 248.129 393.602C244.907 402.809 197.951 401.428 200.713 393.602C202.923 387.341 214.83 384.855 220.508 384.395Z" fill="#EFF2FA"/>
<path fill-rule="evenodd" clip-rule="evenodd" d="M251.502 355.879C257.489 358.065 261.787 361.368 263.213 365.362C263.656 366.603 263.384 367.797 262.698 368.76C262.073 369.636 261.121 370.312 260.108 370.853C258.061 371.945 255.087 372.831 251.642 373.546C244.698 374.987 235.255 375.85 225.934 376.025C216.623 376.2 207.287 375.691 200.576 374.329C197.262 373.656 194.37 372.734 192.452 371.437C191.481 370.78 190.609 369.927 190.155 368.812C189.674 367.63 189.758 366.389 190.29 365.219C192.942 359.386 198.767 356.539 204.505 355.063C209.803 353.699 215.45 353.398 219.388 353.188C219.742 353.169 220.081 353.151 220.405 353.133L220.61 356.81C220.288 356.828 219.956 356.846 219.613 356.864C215.636 357.078 210.345 357.363 205.422 358.629C200.04 360.015 195.594 362.45 193.642 366.744C193.473 367.115 193.514 367.297 193.566 367.423C193.645 367.617 193.882 367.958 194.515 368.387C195.806 369.26 198.103 370.069 201.309 370.719C207.64 372.005 216.671 372.515 225.865 372.343C235.049 372.171 244.248 371.319 250.894 369.94C254.243 369.245 256.801 368.443 258.374 367.604C259.171 367.179 259.552 366.829 259.7 366.621C259.715 366.6 259.726 366.583 259.734 366.569C258.844 364.126 255.827 361.379 250.239 359.338C244.719 357.323 237.031 356.137 227.496 356.569L227.33 352.89C237.228 352.442 245.422 353.659 251.502 355.879ZM259.752 366.531C259.752 366.531 259.752 366.532 259.752 366.533Z" fill="#DCE1EF"/>
<path d="M201.633 338.359C203.107 335.413 196.109 326.544 193.347 323.628L209.459 319.945C210.38 323.321 212.773 331.27 216.825 332.375C221.889 333.756 224.19 339.28 224.651 343.423C225.111 347.567 223.27 348.487 209.459 359.075C195.648 369.664 185.981 378.871 180.918 372.426C175.854 365.981 182.299 363.679 188.744 359.075C195.188 354.472 199.792 342.042 201.633 338.359Z" fill="#FFCABC"/>
<path d="M204.395 339.28C201.818 337.807 199.945 341.122 199.332 342.963C192.887 354.472 175.393 359.996 177.235 368.282C178.708 374.911 183.066 375.955 185.061 375.648C193.807 375.188 225.572 347.566 226.032 345.265C226.421 343.32 223.27 336.518 221.429 335.597C220.692 339.28 212.528 344.191 208.539 346.185C208.232 344.498 206.973 340.754 204.395 339.28Z" fill="#3D58FF"/>
<path d="M225.426 342.114C217.815 349.332 203.56 362.433 197.03 366.901C190.465 371.393 183.928 373.804 180.99 374.592C182.502 375.62 184.072 375.8 185.061 375.648C193.807 375.187 225.572 347.566 226.032 345.265C226.161 344.619 225.9 343.438 225.426 342.114Z" fill="white"/>
<path d="M144.548 227.875C146.021 214.617 178.921 208.847 195.187 207.619L202.092 190.126L238.46 200.254V211.762H237.999L216.823 243.066L179.995 245.368L210.838 321.327L190.583 330.073C174.624 301.531 143.075 241.133 144.548 227.875Z" fill="#E9F3F8"/>
<path d="M144.548 227.875C146.021 214.617 178.921 208.847 195.187 207.619L202.092 190.126L238.46 200.254V211.762H237.999L216.823 243.066L179.995 245.368L210.838 321.327L190.583 330.073C174.624 301.531 143.075 241.133 144.548 227.875Z" fill="#E9F3F8"/>
<path fill-rule="evenodd" clip-rule="evenodd" d="M217.633 213.392C219.217 209.217 219.661 205.08 219.588 202.582L221.428 202.528C221.508 205.248 221.031 209.627 219.355 214.045C217.676 218.468 214.767 223.002 209.933 225.902C206.847 227.754 202.795 228.357 198.538 228.531C195.958 228.637 193.193 228.585 190.459 228.534C188.71 228.501 186.973 228.468 185.304 228.477C180.943 228.501 176.948 228.804 173.807 230.016C170.729 231.203 168.492 233.251 167.537 236.857C166.567 240.522 167.159 246.055 168.934 252.898C170.697 259.699 173.585 267.638 177.05 276.033C182.595 289.467 189.585 303.989 195.74 316.774C197.278 319.971 198.765 323.059 200.163 325.994L198.501 326.786C197.109 323.865 195.628 320.787 194.092 317.597C187.936 304.809 180.916 290.223 175.348 276.736C171.87 268.308 168.946 260.28 167.151 253.361C165.368 246.484 164.656 240.546 165.757 236.386C166.885 232.125 169.602 229.664 173.144 228.298C176.623 226.955 180.912 226.659 185.294 226.636C187.067 226.626 188.84 226.66 190.599 226.694C193.274 226.745 195.915 226.796 198.463 226.692C202.661 226.519 206.317 225.924 208.986 224.323C213.359 221.699 216.051 217.563 217.633 213.392Z" fill="#DCEBF1"/>
<path d="M209.952 192.314L212.743 193.092L214.982 195.65C213.294 195.497 209.366 195.834 207.156 198.412C205.277 200.604 201.491 199.18 199.078 197.761L200.511 194.13L209.952 192.314Z" fill="#CAE1EC"/>
<path d="M154.535 217.095C165.912 211.304 184.285 208.441 195.187 207.618L195.432 206.998C200.971 206.836 206.281 207.149 210.839 208.079C204.298 208.08 183.946 209.889 154.535 217.095Z" fill="#CAE1EC"/>
<path d="M232.577 109.653C221.043 109.046 217.745 109.104 213.141 113.707C211.3 115.549 199.091 149.911 200.951 154.468C203.276 160.165 201.416 179.583 200.951 184.141C200.579 187.787 198.729 191.587 197.489 191.967C197.024 192.22 198.41 196.571 204.395 197.031C211.126 197.549 207.462 191.688 216.299 195.106C224.785 198.389 234.902 192.828 238.623 189.789C241.103 191.941 246.529 189.561 248.389 162.824C250.249 136.086 238.623 116.236 232.577 109.653Z" fill="#EFA641"/>
<path d="M213.143 115.086C212.038 115.823 211.301 115.701 211.301 116.468C211.762 125.061 210.196 147.589 211.301 156.059C212.406 164.53 210.841 197.49 208.539 214.523L240.764 215.904C245.521 210.226 254.298 192.794 251.352 168.487C247.669 138.104 244.029 123.578 243.066 121.073C240.764 115.086 234.319 109.104 229.255 109.103C221.415 109.102 214.524 114.166 213.143 115.086Z" fill="#3D58FF"/>
<path fill-rule="evenodd" clip-rule="evenodd" d="M209.658 208.413C210.545 207.904 211.613 207.398 212.683 207.078C214.402 206.566 215.657 206.664 216.384 207.287C216.964 207.783 217.835 207.716 218.332 207.137C218.828 206.558 218.761 205.686 218.182 205.19C216.331 203.603 213.827 203.855 211.894 204.432C211.238 204.627 210.594 204.875 209.982 205.15C209.877 206.267 209.769 207.357 209.658 208.413ZM210.874 194.093C211.299 193.722 211.792 193.402 212.324 193.208C213.328 192.842 214.676 192.845 216.354 194.371C216.919 194.884 217.792 194.842 218.305 194.278C218.818 193.714 218.777 192.84 218.212 192.327C215.84 190.17 213.427 189.866 211.378 190.613C211.283 190.647 211.188 190.684 211.096 190.723C211.025 191.85 210.951 192.975 210.874 194.093ZM211.674 179.763C212.26 179.27 213.142 178.726 214.138 178.471C215.28 178.179 216.55 178.262 217.816 179.248C218.418 179.716 219.286 179.607 219.754 179.005C220.223 178.403 220.114 177.536 219.512 177.067C217.464 175.475 215.282 175.328 213.454 175.795C212.866 175.946 212.312 176.159 211.806 176.408C211.766 177.509 211.722 178.629 211.674 179.763ZM212.044 165.509C212.126 165.456 212.203 165.394 212.275 165.323C212.836 164.761 213.889 164.002 215.116 163.631C216.305 163.272 217.582 163.29 218.819 164.114C219.454 164.537 220.311 164.366 220.734 163.731C221.157 163.096 220.986 162.239 220.351 161.816C218.273 160.431 216.098 160.448 214.317 160.987C213.469 161.243 212.695 161.62 212.028 162.034C212.044 163.115 212.049 164.278 212.044 165.509Z" fill="#1834E2"/>
<path d="M232.476 201.635C228.425 245.093 193.039 246.135 176.773 242.606C181.837 256.877 196.477 257.614 240.302 256.877C295.084 255.956 286.338 240.304 293.243 204.857C300.148 169.41 296.465 152.378 267.003 150.536C237.54 148.695 237.54 147.314 232.476 201.635Z" fill="#FFD58B"/>
<path fill-rule="evenodd" clip-rule="evenodd" d="M284.991 155.09C272.239 157.927 259.344 169.042 253.654 197.492C245.265 239.437 217.063 253.313 197.854 255.981C207.499 257.239 221.099 257.199 240.303 256.877C286.015 256.108 287.494 245.083 290.742 220.859C291.387 216.052 292.101 210.726 293.244 204.857C298.358 178.603 297.665 162.451 284.991 155.09Z" fill="#FFC867"/>
<path fill-rule="evenodd" clip-rule="evenodd" d="M284.991 155.09C272.239 157.927 259.344 169.042 253.654 197.492C245.265 239.437 217.063 253.313 197.854 255.981C207.499 257.239 221.099 257.199 240.303 256.877C286.015 256.108 287.494 245.083 290.742 220.859C291.387 216.052 292.101 210.726 293.244 204.857C298.358 178.603 297.665 162.451 284.991 155.09Z" fill="url(#paint0_linear)"/>
<g style="mix-blend-mode:multiply">
<path fill-rule="evenodd" clip-rule="evenodd" d="M201.694 175.141C216.925 162.189 241.64 124.453 226.031 115.088L201.404 164.732C201.951 167.148 201.957 170.923 201.694 175.141Z" fill="#DE5454" fill-opacity="0.2"/>
</g>
<path d="M122.088 95.7882L124.332 94.4412C124.881 94.1124 125.56 94.0913 126.128 94.3855L137.062 100.055C137.439 100.25 137.736 100.569 137.904 100.958L156.465 143.825C156.773 144.537 156.602 145.366 156.037 145.897L150.937 150.698C150.044 151.538 148.595 151.288 148.036 150.197L121.396 98.2069C120.954 97.3443 121.257 96.2868 122.088 95.7882Z" fill="#697DB5"/>
<path d="M123.827 96.7779C123.174 95.6352 123.896 94.1961 125.202 94.0365L155.473 90.3379C156.192 90.2502 156.895 90.5913 157.271 91.2099L180.893 130.105C181.416 130.967 181.149 132.09 180.292 132.624L155.38 148.143C154.493 148.695 153.325 148.401 152.807 147.494L123.827 96.7779Z" fill="#8397CC"/>
<path d="M129.317 99.4195C128.677 98.277 129.4 96.8503 130.7 96.6915L154.382 93.798C155.1 93.7103 155.803 94.0514 156.179 94.67L174.875 125.455C175.42 126.352 175.106 127.522 174.185 128.026L153.71 139.223C152.824 139.708 151.713 139.389 151.22 138.508L129.317 99.4195Z" fill="#5372C2"/>
<mask id="mask0" mask-type="alpha" maskUnits="userSpaceOnUse" x="128" y="84" width="48" height="57">
<path d="M129.317 99.4206C128.677 98.2781 129.4 96.8514 130.7 96.6926L154.382 93.7991C155.1 93.7114 155.803 94.0525 156.179 94.6711L174.875 125.456C175.42 126.353 175.106 127.524 174.185 128.027L153.71 139.224C152.824 139.709 151.713 139.39 151.22 138.509L129.317 99.4206Z" fill="#95ADEC"/>
</mask>
<g mask="url(#mask0)">
<path d="M153.297 89.3092L160.462 91.0144L148.952 139.382L141.787 137.677L153.297 89.3092Z" fill="url(#paint1_linear)"/>
<path d="M164.346 94.8325L166.749 95.4044L155.239 143.772L152.835 143.2L164.346 94.8325Z" fill="url(#paint2_linear)"/>
</g>
<path d="M174.934 168.489L192.888 148.234L209 156.98C203.322 169.717 186.903 186.205 174.934 187.364C163.517 188.468 145.164 158.054 136.264 138.106C127.057 128.899 123.374 114.628 128.439 111.866L136.725 127.057C137.185 125.676 139.211 122.362 143.63 120.152C149.154 117.39 148.602 122.454 147.313 124.295C144.735 127.978 143.323 129.512 143.63 131.661L174.934 168.489Z" fill="#FFC8BB"/>
<path d="M215.442 111.865C218.665 98.975 213.141 97.5939 213.141 96.2128C222.041 93.1438 238.552 88.2027 233.396 92.9904C228.24 97.778 230.634 106.034 232.475 109.563L215.442 111.865Z" fill="#FAAE9A"/>
<path d="M199.919 63.401C200.145 59.2897 200.734 56.3392 201.285 55.806L201.455 53.4648L210.931 47.6358L229.379 57.8474L237.156 79.1417L229.169 93.1352C224.221 95.612 212.956 100.738 207.475 101.426C201.994 102.114 199.59 91.5894 199.074 86.2414C191.534 81.62 198.214 79.3898 199.811 77.3334C203.428 72.6777 199.636 68.5401 199.919 63.401Z" fill="#FFCDBF"/>
<g filter="url(#filter0_f)">
<path fill-rule="evenodd" clip-rule="evenodd" d="M233.219 68.3626L237.155 79.1416L229.922 91.8147C228.552 92.4805 227.052 92.9368 225.457 93.137C217.636 94.1185 210.501 88.5746 209.519 80.7543C208.538 72.9341 214.082 65.7988 221.902 64.8172C226.177 64.2807 230.246 65.6938 233.219 68.3626Z" fill="#FF8982"/>
</g>
<path d="M199.799 51.3546C196.42 31.8276 235.339 27.7006 244.652 39.0581C265.528 39.7784 263.134 77.8762 259.299 96.6069L252.733 98.9758L252.733 90.6894L250.891 99.4361C238.196 107.711 222.686 110.482 215.225 111.418C225.317 106.068 227.302 93.0448 227.032 87.2017C231.371 84.8014 235.435 80.2166 234.871 75.7179C234.068 69.3231 228.15 71.4579 226.989 72.0675C211.074 69.4737 200.662 56.3444 199.799 51.3546Z" fill="#3F3333"/>
<path fill-rule="evenodd" clip-rule="evenodd" d="M202.679 57.5486C202.172 56.5039 201.682 55.5123 201.169 54.6059L201.97 54.152C202.499 55.0866 203.001 56.1019 203.508 57.1464C203.582 57.2999 203.657 57.4539 203.732 57.6085C204.168 58.5102 204.614 59.4299 205.095 60.3495C206.221 62.5031 207.526 64.6233 209.303 66.4051C212.823 69.9353 218.285 72.2267 228.165 70.5278L228.321 71.4352C218.218 73.1724 212.429 70.8445 208.651 67.0552C206.779 65.1774 205.423 62.9629 204.279 60.7763C203.791 59.843 203.338 58.9089 202.902 58.0077C202.827 57.8537 202.753 57.7005 202.679 57.5486Z" fill="#3F3333"/>
<path fill-rule="evenodd" clip-rule="evenodd" d="M208.928 64.8617C207.46 64.6966 206.092 65.3818 205.476 66.3873C205.277 66.7125 204.852 66.8145 204.527 66.6153C204.202 66.416 204.099 65.9909 204.299 65.6657C205.223 64.1574 207.137 63.2705 209.082 63.4893C211.079 63.714 213.046 65.0835 214.155 67.9432C214.292 68.2988 214.116 68.6988 213.76 68.8367C213.405 68.9745 213.005 68.798 212.867 68.4424C211.917 65.9915 210.343 65.0209 208.928 64.8617Z" fill="#3F3333"/>
<path d="M210.608 73.2124C210.615 75.2329 209.642 76.874 208.436 76.8781C207.229 76.8821 206.246 75.2475 206.239 73.227C206.232 71.2066 207.205 69.5655 208.411 69.5614C209.618 69.5574 210.601 71.192 210.608 73.2124Z" fill="#3F3333"/>
<path d="M203.585 88.9234C204.556 89.2655 206.555 90.4065 214.89 86.5766C212.304 91.8501 206.377 99.337 203.585 88.9234Z" fill="white"/>
<path d="M188.282 147.313C195.648 134.423 212.117 105.917 224.189 113.707C238.46 122.914 220.967 149.614 209.458 162.044C201.632 171.711 186.901 184.601 179.075 187.363C171.249 190.126 156.978 181.839 145.469 156.98C141.05 147.436 134.881 146.853 134.881 142.71C134.881 138.567 139.024 135.805 142.247 134.424C145.469 133.042 150.533 131.201 150.993 137.186C151.362 141.973 166.645 156.52 174.471 164.346L188.282 147.313Z" fill="#3D58FF"/>
<path d="M167.355 135.532C167.895 136.394 167.808 137.421 167.162 137.826C166.515 138.23 165.554 137.86 165.014 136.998C164.475 136.136 164.561 135.109 165.208 134.704C165.854 134.299 166.816 134.67 167.355 135.532Z" fill="#7B86B5"/>
<path d="M161.585 76.8794L149.155 71.8155C133.043 75.4983 118.772 76.8794 113.247 63.9895C107.723 51.0996 121.073 33.1458 149.155 35.9079C171.62 38.1176 165.267 58.3118 159.283 68.1327L161.585 76.8794Z" fill="#F65D6D"/>
<path fill-rule="evenodd" clip-rule="evenodd" d="M139.122 46.6008C138.064 45.4777 136.582 44.921 135.578 45.0939C133.237 45.497 132.222 46.3699 131.815 47.169C131.393 47.9965 131.409 49.1557 132.009 50.556C132.31 51.2571 131.985 52.069 131.284 52.3694C130.583 52.6697 129.771 52.3449 129.47 51.6437C128.689 49.8205 128.422 47.7414 129.354 45.9139C130.301 44.0581 132.278 42.8593 135.109 42.3718C137.293 41.9958 139.651 43.1335 141.133 44.7071C142.647 46.3149 143.63 48.8262 142.204 51.2767C141.796 51.9778 141.407 52.597 141.093 53.0952C140.938 53.3419 140.802 53.559 140.691 53.7417C140.314 54.3637 140.189 54.6555 140.151 54.8594C140.127 54.9879 140.118 55.1696 140.302 55.5937C140.505 56.0634 140.887 56.6974 141.555 57.6969C141.979 58.331 141.809 59.1887 141.175 59.6126C140.541 60.0365 139.683 59.8661 139.259 59.232C138.596 58.2402 138.082 57.4183 137.768 56.6929C137.433 55.9218 137.283 55.1692 137.437 54.3497C137.576 53.6057 137.949 52.9362 138.33 52.3088C138.482 52.0573 138.639 51.8091 138.805 51.5453C139.099 51.0771 139.425 50.5598 139.816 49.8874C140.404 48.8774 140.148 47.6897 139.122 46.6008Z" fill="white"/>
<path d="M285.198 9.18056C266.615 22.6013 272.154 40.0243 278.753 49.6917L276.912 63.0415L289.562 58.4649C310.125 61.2269 357.105 57.9781 357.474 32.1982C357.934 -0.0265067 310.057 -8.77307 285.198 9.18056Z" fill="#47BB8E"/>
<path fill-rule="evenodd" clip-rule="evenodd" d="M296.049 18.57C296.853 17.8255 297.968 17.4408 299.025 17.4992C299.752 17.5393 300.387 17.7657 300.892 18.1695C301.395 18.5717 301.715 19.108 301.883 19.6828C302.211 20.8095 301.97 22.1192 301.358 23.2103C300.994 23.8584 300.429 24.5425 299.826 25.1239C299.775 25.1725 299.724 25.2208 299.672 25.2688C299.949 25.4423 300.221 25.5834 300.477 25.6867C301.557 26.1225 302.919 26.1697 304.3 25.8733C305.677 25.5779 306.992 24.9578 307.954 24.1605C307.944 24.1689 307.961 24.152 308.018 24.0938C308.051 24.06 308.098 24.0125 308.162 23.9479C308.302 23.8053 308.484 23.6199 308.666 23.4415C308.843 23.2679 309.041 23.0806 309.21 22.9425C309.286 22.8801 309.401 22.7907 309.526 22.7232C309.578 22.6955 309.718 22.6226 309.905 22.5997C310.006 22.5874 310.174 22.5828 310.363 22.6552C310.573 22.7355 310.745 22.8867 310.852 23.0795C311.056 23.4497 311.147 23.8799 311.2 24.131C311.21 24.1777 311.218 24.2182 311.226 24.2509C311.289 24.5185 311.34 24.607 311.412 24.6751C311.493 24.7512 311.513 24.7463 311.54 24.7398C311.543 24.7389 311.547 24.738 311.551 24.7373C311.676 24.714 311.854 24.6275 312.189 24.4249C312.219 24.4069 312.25 24.3876 312.284 24.3673C312.554 24.2017 312.935 23.969 313.327 23.8382C313.521 23.7737 313.733 23.7281 313.956 23.7188C313.491 23.0442 313.163 22.2455 313.068 21.3021C313.008 20.7055 313.082 20.1329 313.38 19.6637C313.693 19.1715 314.169 18.9248 314.638 18.8413C315.494 18.6889 316.419 19.0458 317.031 19.4547C317.557 19.8057 317.837 20.3548 317.982 20.8268C318.131 21.3115 318.175 21.8317 318.139 22.2811C318.087 22.945 317.905 23.7185 317.569 24.3854C317.951 24.5814 318.353 24.7522 318.761 24.9003C320.642 25.5832 321.406 25.7645 322.062 25.635C322.379 25.5723 322.726 25.4225 323.208 25.1063C323.699 24.7845 324.277 24.3258 325.067 23.6804C325.839 23.0497 327.11 22.6201 328.287 22.3856C329.476 22.1488 330.809 22.063 331.776 22.2935C333.212 22.6359 334.387 23.3466 335.259 24.0743C336.092 24.7704 336.691 25.5182 336.99 26.051C337.291 26.4723 337.518 26.6249 337.638 26.6749C337.724 26.7108 337.783 26.7099 337.878 26.6655C338.005 26.6058 338.187 26.4624 338.401 26.1856C338.609 25.9162 338.812 25.5678 338.996 25.1712C339.367 24.3726 339.618 23.4789 339.707 22.8681C339.712 22.8349 339.716 22.8037 339.72 22.7746C339.688 22.7445 339.658 22.7118 339.63 22.6764C339.315 22.2773 339.383 21.6983 339.783 21.3833C339.924 21.2719 340.344 20.988 340.867 21.191C341.353 21.3799 341.489 21.8307 341.526 21.9746C341.618 22.3313 341.582 22.7721 341.529 23.1337C341.413 23.9274 341.109 24.9924 340.666 25.9467C340.443 26.4264 340.174 26.903 339.858 27.312C339.547 27.7137 339.151 28.1022 338.66 28.3328C338.135 28.5787 337.534 28.6266 336.929 28.3747C336.362 28.1383 335.878 27.6742 335.454 27.0686C335.433 27.0392 335.414 27.0086 335.397 26.977C335.24 26.6846 334.795 26.0858 334.078 25.4877C333.372 24.8978 332.447 24.3466 331.349 24.0847C330.759 23.9441 329.73 23.9758 328.647 24.1915C327.553 24.4096 326.646 24.7677 326.232 25.1064C325.452 25.7434 324.802 26.2631 324.218 26.646C323.626 27.0346 323.053 27.316 322.419 27.4415C321.17 27.6883 319.902 27.2734 318.133 26.6312C317.553 26.421 316.905 26.1401 316.269 25.7705C316.14 25.8324 316.002 25.8828 315.854 25.9182C315.254 26.0618 314.649 25.9228 314.092 25.5778C314.09 25.5767 314.088 25.5755 314.086 25.5743C314.063 25.5593 314.038 25.5425 313.909 25.5853C313.728 25.6457 313.534 25.763 313.219 25.9539C313.194 25.9689 313.169 25.9845 313.142 26.0004C312.844 26.1809 312.391 26.4537 311.888 26.5475C311.293 26.6585 310.681 26.5156 310.15 26.0162C309.852 25.7358 309.68 25.4238 309.572 25.1397C309.539 25.1735 309.507 25.2062 309.476 25.2375L309.462 25.2518C309.399 25.3166 309.34 25.3768 309.292 25.4244L309.288 25.4286C309.252 25.4649 309.185 25.5322 309.129 25.5785C307.914 26.5847 306.321 27.3231 304.686 27.6738C303.056 28.0236 301.301 28.0046 299.788 27.3945C299.228 27.1687 298.653 26.8343 298.104 26.4226C298.02 26.4675 297.936 26.5092 297.853 26.5473C296.805 27.0255 295.639 27.1767 294.546 27.1937C293.449 27.2107 292.358 27.0924 291.45 26.9886C291.318 26.9736 291.173 26.9593 291.019 26.9441C290.369 26.88 289.549 26.799 288.82 26.5739C287.86 26.2776 286.888 25.6879 286.404 24.4602C286.218 23.9871 286.45 23.4525 286.923 23.2661C287.396 23.0796 287.931 23.312 288.117 23.7851C288.329 24.3224 288.734 24.6204 289.363 24.8144C289.896 24.9791 290.472 25.0371 291.104 25.1006C291.284 25.1188 291.469 25.1374 291.659 25.1591C292.572 25.2635 293.554 25.3675 294.517 25.3525C295.288 25.3406 296.005 25.2521 296.632 25.0487C295.853 24.148 295.209 23.0473 294.985 21.8668C294.725 20.4946 295.218 19.3397 296.049 18.57ZM298.239 24.0815C298.342 23.9919 298.445 23.8971 298.548 23.7979C299.063 23.3017 299.5 22.7574 299.752 22.309C300.181 21.5457 300.275 20.7469 300.115 20.1977C300.038 19.9346 299.909 19.741 299.742 19.6074C299.577 19.4753 299.322 19.3598 298.924 19.3378C298.353 19.3063 297.73 19.5231 297.3 19.921C296.897 20.2938 296.661 20.8223 296.794 21.524C296.953 22.3588 297.465 23.2439 298.184 24.023C298.202 24.0426 298.22 24.0621 298.239 24.0815ZM316.031 23.3202C316.172 22.9673 316.271 22.5466 316.303 22.1366C316.322 21.8963 316.297 21.6104 316.222 21.3673C316.143 21.1116 316.046 21.0112 316.008 20.9859C315.829 20.866 315.617 20.7654 315.411 20.7053C315.198 20.6432 315.044 20.6394 314.961 20.6542C314.946 20.6568 314.936 20.6596 314.929 20.6619C314.914 20.696 314.871 20.8223 314.9 21.1178C314.989 21.9994 315.413 22.7258 316.031 23.3202Z" fill="white"/>
<path fill-rule="evenodd" clip-rule="evenodd" d="M333.081 34.808L333.08 34.8048L333.07 34.7789C333.061 34.7545 333.047 34.7163 333.03 34.6664C332.995 34.5663 332.949 34.4212 332.902 34.248C332.806 33.8914 332.721 33.4602 332.721 33.0702C332.721 32.6588 332.814 32.4565 332.893 32.3732C332.932 32.3318 333.097 32.181 333.671 32.2362C334.188 32.5067 334.347 32.9471 334.402 33.5665C334.417 33.7349 334.423 33.905 334.426 34.0831C334.427 34.1142 334.428 34.1466 334.428 34.1798C334.431 34.3228 334.434 34.4805 334.443 34.621C334.453 34.7874 334.474 35.0155 334.548 35.2347C334.623 35.4614 334.799 35.804 335.199 35.9866C335.291 36.0284 335.374 36.0817 335.506 36.1668C335.574 36.211 335.656 36.2636 335.759 36.3277C335.987 36.4698 336.371 36.6986 336.816 36.7556C337.021 36.7817 337.214 36.8184 337.43 36.8596L337.455 36.8643C337.671 36.9053 337.92 36.9523 338.175 36.9783C338.719 37.0336 339.313 36.997 339.973 36.683C340.781 36.2987 341.36 35.7219 341.835 35.1794C342.017 34.9716 342.174 34.7806 342.323 34.6006C342.596 34.2708 342.839 33.9775 343.142 33.6846C343.507 33.3312 343.517 32.7483 343.164 32.3827C342.811 32.0171 342.228 32.0072 341.862 32.3606C341.487 32.7227 341.13 33.1537 340.819 33.528C340.686 33.6879 340.562 33.8376 340.449 33.967C340.031 34.4448 339.65 34.7975 339.182 35.0201C338.898 35.1552 338.659 35.1766 338.362 35.1463C338.197 35.1295 338.023 35.0978 337.799 35.0552L337.761 35.048C337.555 35.0088 337.312 34.9625 337.05 34.929C337.051 34.9292 337.052 34.9293 337.052 34.9293C337.051 34.929 337.027 34.924 336.973 34.8993C336.91 34.8705 336.833 34.8273 336.731 34.764C336.681 34.7329 336.63 34.7001 336.573 34.6635L336.562 34.6563C336.51 34.6228 336.453 34.5858 336.395 34.5498C336.359 34.5271 336.32 34.5031 336.279 34.4787C336.274 34.3884 336.272 34.2889 336.27 34.1646C336.269 34.1267 336.268 34.0865 336.267 34.0436C336.263 33.8563 336.257 33.6354 336.236 33.4027C336.152 32.4609 335.809 31.1535 334.292 30.4936C334.195 30.4512 334.094 30.427 333.993 30.4195C332.997 30.295 332.142 30.4898 331.558 31.1049C331 31.6924 330.88 32.4714 330.88 33.0702C330.88 33.3434 330.905 33.6143 330.942 33.8685L328.206 33.1662C327.719 33.0413 327.221 33.3299 327.089 33.8148C326.949 34.3261 326.933 34.8734 326.939 35.3398C326.942 35.5648 326.949 35.7582 326.955 35.9383C326.964 36.1843 326.972 36.4057 326.968 36.6494C326.961 37.0475 326.916 37.2723 326.859 37.3931C326.832 37.4496 326.818 37.4784 326.7 37.5047C326.587 37.5299 326.341 37.485 325.785 37.0762C325.627 36.9603 325.493 36.8534 325.347 36.7378C325.242 36.6546 325.132 36.5668 325.003 36.4681C324.736 36.2635 324.414 36.0315 324.071 35.8742C322.631 35.215 321.319 35.8608 320.386 36.492C320.003 36.7509 319.624 37.0491 319.285 37.3157C319.203 37.3807 319.123 37.4439 319.045 37.5041C318.626 37.8313 318.286 38.0773 317.987 38.227C317.18 38.631 316.447 38.5931 315.959 38.1372C315.795 37.9846 315.654 37.7707 315.47 37.4442C315.444 37.3986 315.417 37.3495 315.389 37.2976C315.235 37.0207 315.039 36.6662 314.798 36.3573C314.326 35.7531 313.675 35.5589 313.052 35.6144C312.491 35.6644 311.954 35.911 311.52 36.1566C311.072 36.41 310.637 36.7198 310.281 36.9771C310.252 36.998 310.224 37.0184 310.197 37.0383C309.856 37.2848 309.626 37.4514 309.464 37.5401C307.985 38.3498 305.957 39.24 304.193 39.3595C303.325 39.4183 302.6 39.2849 302.039 38.9409C301.626 38.6875 301.24 38.2821 300.947 37.6241C301.281 37.3009 301.615 36.9358 301.887 36.5414C302.196 36.0943 302.467 35.5568 302.548 34.9504C302.633 34.3198 302.506 33.6719 302.109 33.0586C301.91 32.7508 301.562 32.4504 301.061 32.4436C300.642 32.4378 300.33 32.6494 300.175 32.7718C300.001 32.9092 299.856 33.0713 299.759 33.1858C299.685 33.2727 299.648 33.3188 299.62 33.3542C299.594 33.3865 299.575 33.4099 299.542 33.4471C299.026 34.0286 298.816 34.7849 298.754 35.4552C298.703 35.9911 298.74 36.5385 298.836 37.0301C298.777 37.0784 298.719 37.126 298.662 37.1726C296.992 38.5379 294.888 39.3835 292.801 39.5757C291.72 39.6752 290.444 39.2608 289.352 38.4498C288.263 37.6413 287.469 36.5206 287.243 35.3452C287.147 34.8458 286.665 34.5187 286.165 34.6145C285.666 34.7104 285.339 35.1929 285.435 35.6923C285.767 37.4221 286.887 38.9134 288.254 39.9281C289.616 40.9402 291.334 41.56 292.97 41.4094C295.287 41.196 297.605 40.3021 299.506 38.8522C299.91 39.5687 300.439 40.1199 301.076 40.5105C302.068 41.119 303.213 41.2715 304.317 41.1967C306.497 41.0491 308.817 39.9937 310.348 39.1553C310.619 39.0067 310.951 38.7663 311.251 38.5486C311.288 38.5218 311.324 38.4953 311.36 38.4694C311.719 38.2101 312.078 37.9564 312.427 37.7592C312.789 37.5542 313.05 37.4633 313.215 37.4486C313.308 37.4403 313.316 37.4514 313.339 37.4815C313.341 37.4844 313.344 37.4874 313.346 37.4906C313.491 37.6755 313.604 37.8797 313.757 38.154C313.791 38.2153 313.828 38.2801 313.866 38.349C314.058 38.6888 314.315 39.1214 314.702 39.4827C315.965 40.6627 317.618 40.4708 318.811 39.8737C319.293 39.6326 319.762 39.2799 320.177 38.9565C320.27 38.8839 320.361 38.8124 320.451 38.7421C320.784 38.48 321.095 38.2352 321.417 38.0174C322.252 37.4525 322.804 37.3195 323.304 37.5485C323.447 37.6137 323.63 37.7358 323.882 37.9293C323.96 37.9886 324.053 38.0623 324.153 38.1416C324.327 38.279 324.523 38.4335 324.694 38.5598C325.223 38.9483 326.097 39.5267 327.102 39.3016C327.792 39.1472 328.263 38.7326 328.525 38.1782C328.756 37.688 328.801 37.1344 328.809 36.6816C328.814 36.4104 328.803 36.0835 328.793 35.7866C328.788 35.6139 328.782 35.4515 328.781 35.316C328.78 35.2816 328.78 35.2478 328.78 35.2146L331.997 36.0401C332.332 36.1262 332.688 36.0167 332.917 35.7566C333.145 35.4966 333.209 35.1303 333.081 34.8085L333.081 34.808ZM301.319 34.2146C301.319 34.2147 301.318 34.215 301.318 34.2155Z" fill="white"/>
<path d="M145.706 63.5832C145.56 64.846 144.418 65.751 143.155 65.6047C141.892 65.4583 140.987 64.316 141.133 63.0532C141.28 61.7904 142.422 60.8854 143.685 61.0317C144.948 61.1781 145.853 62.3204 145.706 63.5832Z" fill="white"/>
<path d="M43.987 159.434L42.3516 149.155C65.9023 156.921 79.7856 152.391 83.7834 149.155L81.0576 159.434C66.2294 165.83 50.1655 162.099 43.987 159.434Z" fill="#EFF2FA"/>
<path fill-rule="evenodd" clip-rule="evenodd" d="M42.7864 151.57L42.3984 149.131C65.8964 156.88 79.7486 152.36 83.7374 149.131L82.859 152.444C61.2592 160.584 47.7596 155.689 42.7864 151.57Z" fill="#E8EBF2"/>
<defs>
<filter id="filter0_f" x="187.742" y="43.1547" width="70.9607" height="71.7596" filterUnits="userSpaceOnUse" color-interpolation-filters="sRGB">
<feFlood flood-opacity="0" result="BackgroundImageFix"/>
<feBlend mode="normal" in="SourceGraphic" in2="BackgroundImageFix" result="shape"/>
<feGaussianBlur stdDeviation="10" result="effect1_foregroundBlur"/>
</filter>
<linearGradient id="paint0_linear" x1="274.369" y1="198.412" x2="222.349" y2="241.685" gradientUnits="userSpaceOnUse">
<stop stop-color="#FFC052"/>
<stop offset="1" stop-color="#FFD58B"/>
</linearGradient>
<linearGradient id="paint1_linear" x1="156.219" y1="90.9509" x2="145.369" y2="138.529" gradientUnits="userSpaceOnUse">
<stop stop-color="#AAC1FF"/>
<stop offset="1" stop-color="#95ADEC"/>
</linearGradient>
<linearGradient id="paint2_linear" x1="165.184" y1="95.9784" x2="155.229" y2="143.734" gradientUnits="userSpaceOnUse">
<stop stop-color="#AAC1FF"/>
<stop offset="1" stop-color="#95ADEC"/>
</linearGradient>
</defs>
</svg>
